#N canvas 249 47 1336 913 10;
#X obj 37 37 udpreceive 3000;
#X obj 37 58 unpackOSC;
#X floatatom 90 88 5 0 0 0 - - -;
#X symbolatom 65 185 10 0 0 0 - - -;
#X floatatom 131 185 5 0 0 0 - - -;
#X symbolatom 471 118 10 0 0 0 - - -;
#X floatatom 471 142 5 0 0 0 - - -;
#X floatatom 515 142 5 0 0 0 - - -;
#X floatatom 559 142 5 0 0 0 - - -;
#X symbolatom 591 118 10 0 0 0 - - -;
#X floatatom 607 150 5 0 0 0 - - -;
#X floatatom 642 150 5 0 0 0 - - -;
#X floatatom 679 150 5 0 0 0 - - -;
#X symbolatom 718 118 10 0 0 0 - - -;
#X floatatom 734 150 5 0 0 0 - - -;
#X floatatom 769 150 5 0 0 0 - - -;
#X floatatom 806 150 5 0 0 0 - - -;
#X obj 471 168 vsl 15 128 0 1 0 0 empty empty empty 0 -9 0 10 -262144
-1 -1 646 1;
#X obj 515 168 vsl 15 128 0 1 0 0 empty empty empty 0 -9 0 10 -262144
-1 -1 844 1;
#X obj 559 168 vsl 15 128 0 1 0 0 empty empty empty 0 -9 0 10 -262144
-1 -1 4 1;
#X obj 606 176 vsl 15 128 0 1 0 0 empty empty empty 0 -9 0 10 -262144
-1 -1 795 1;
#X obj 640 176 vsl 15 128 0 1 0 0 empty empty empty 0 -9 0 10 -262144
-1 -1 3761 1;
#X obj 678 176 vsl 15 128 0 1 0 0 empty empty empty 0 -9 0 10 -262144
-1 -1 416 1;
#X obj 735 176 vsl 15 128 0 1 0 0 empty empty empty 0 -9 0 10 -262144
-1 -1 712 1;
#X obj 769 176 vsl 15 128 0 1 0 0 empty empty empty 0 -9 0 10 -262144
-1 -1 430 1;
#X obj 807 176 vsl 15 128 0 1 0 0 empty empty empty 0 -9 0 10 -262144
-1 -1 413 1;
#X obj 471 71 unpack s f f f s f f f s f f f s f f f s f f f, f 91
;
#X symbolatom 847 118 10 0 0 0 - - -;
#X floatatom 863 150 5 0 0 0 - - -;
#X floatatom 898 150 5 0 0 0 - - -;
#X floatatom 935 150 5 0 0 0 - - -;
#X obj 864 176 vsl 15 128 0 1 0 0 empty empty empty 0 -9 0 10 -262144
-1 -1 509 1;
#X obj 898 176 vsl 15 128 0 1 0 0 empty empty empty 0 -9 0 10 -262144
-1 -1 768 1;
#X obj 936 176 vsl 15 128 0 1 0 0 empty empty empty 0 -9 0 10 -262144
-1 -1 422 1;
#X symbolatom 984 118 10 0 0 0 - - -;
#X floatatom 1000 150 5 0 0 0 - - -;
#X floatatom 1035 150 5 0 0 0 - - -;
#X floatatom 1072 150 5 0 0 0 - - -;
#X obj 1001 176 vsl 15 128 0 1 0 0 empty empty empty 0 -9 0 10 -262144
-1 -1 685 1;
#X obj 1035 176 vsl 15 128 0 1 0 0 empty empty empty 0 -9 0 10 -262144
-1 -1 764 1;
#X obj 1073 176 vsl 15 128 0 1 0 0 empty empty empty 0 -9 0 10 -262144
-1 -1 428 1;
#X floatatom 329 345 5 0 0 0 - - -;
#X text 364 345 minumum;
#X floatatom 329 365 5 0 0 0 - - -;
#X text 364 365 maximum;
#X text 291 88 get range for each joint;
#X text 324 109 thumb 0.75 0.72 0.3;
#X text 260 130 index and others 0.2 0.1 0.4;
#X floatatom 608 565 5 0 0 0 - - -;
#X floatatom 767 565 5 0 0 0 - - -;
#X floatatom 923 565 5 0 0 0 - - -;
#X floatatom 1076 564 5 0 0 0 - - -;
#X obj 608 596 vsl 15 128 0 1 0 0 empty empty empty 0 -9 0 10 -262144
-1 -1 1457 1;
#X obj 767 596 vsl 15 128 0 1 0 0 empty empty empty 0 -9 0 10 -262144
-1 -1 1342 1;
#X obj 923 596 vsl 15 128 0 1 0 0 empty empty empty 0 -9 0 10 -262144
-1 -1 1080 1;
#X obj 1076 595 vsl 15 128 0 1 0 0 empty empty empty 0 -9 0 10 -262144
-1 -1 1321 1;
#X obj 68 113 routeOSC /hand;
#X obj 127 222 vsl 15 128 0 1 0 0 empty empty empty 0 -9 0 10 -262144
-1 -1 6402 1;
#X obj 68 143 unpack s f s f, f 28;
#X symbolatom 168 186 10 0 0 0 - - -;
#X floatatom 234 184 5 0 0 0 - - -;
#X obj 230 226 vsl 15 128 0 1 0 0 empty empty empty 0 -9 0 10 -262144
-1 -1 6725 1;
#X obj 113 404 s 2-wrist;
#X obj 235 409 s 2-wrist-roll;
#X text 780 21 finger 1-5 inverted;
#X obj 767 321 node-osc-finger 3;
#X obj 923 321 node-osc-finger 4;
#X obj 1076 320 node-osc-finger 5;
#X floatatom 467 577 5 0 0 0 - - -;
#X obj 467 608 vsl 15 128 0 1 0 0 empty empty empty 0 -9 0 10 -262144
-1 -1 865 1;
#X obj 608 321 node-osc-finger 2;
#X obj 459 327 node-osc-finger 1;
#X obj 43 468 routeOSC /fingers/processed;
#X obj 43 519 unpack s f s f s f s f s f, f 52;
#X obj 59 627 vsl 15 128 0 1 0 0 empty empty empty 0 -9 0 10 -262144
-1 -1 1210 1;
#X obj 130 627 vsl 15 128 0 1 0 0 empty empty empty 0 -9 0 10 -262144
-1 -1 1062 1;
#X obj 197 627 vsl 15 128 0 1 0 0 empty empty empty 0 -9 0 10 -262144
-1 -1 946 1;
#X obj 231 627 vsl 15 128 0 1 0 0 empty empty empty 0 -9 0 10 -262144
-1 -1 833 1;
#X obj 271 627 vsl 15 128 0 1 0 0 empty empty empty 0 -9 0 10 -262144
-1 -1 878 1;
#X symbolatom 26 561 10 0 0 0 - - -;
#X symbolatom 95 561 10 0 0 0 - - -;
#X symbolatom 166 561 10 0 0 0 - - -;
#X symbolatom 250 564 10 0 0 0 - - -;
#X symbolatom 326 561 10 0 0 0 - - -;
#X obj 472 50 routeOSC /fingers/raw;
#X floatatom 59 763 5 0 0 0 - - -;
#X floatatom 130 763 5 0 0 0 - - -;
#X floatatom 197 763 5 0 0 0 - - -;
#X floatatom 231 763 5 0 0 0 - - -;
#X floatatom 271 763 5 0 0 0 - - -;
#X connect 0 0 1 0;
#X connect 1 0 56 0;
#X connect 1 0 72 0;
#X connect 1 0 84 0;
#X connect 1 1 2 0;
#X connect 4 0 57 0;
#X connect 6 0 17 0;
#X connect 7 0 18 0;
#X connect 8 0 19 0;
#X connect 10 0 20 0;
#X connect 11 0 21 0;
#X connect 12 0 22 0;
#X connect 14 0 23 0;
#X connect 15 0 24 0;
#X connect 16 0 25 0;
#X connect 17 0 71 0;
#X connect 18 0 71 1;
#X connect 19 0 71 2;
#X connect 20 0 70 0;
#X connect 21 0 70 1;
#X connect 22 0 70 2;
#X connect 23 0 65 0;
#X connect 24 0 65 1;
#X connect 25 0 65 2;
#X connect 26 0 5 0;
#X connect 26 1 6 0;
#X connect 26 2 7 0;
#X connect 26 3 8 0;
#X connect 26 4 9 0;
#X connect 26 5 10 0;
#X connect 26 6 11 0;
#X connect 26 7 12 0;
#X connect 26 8 13 0;
#X connect 26 9 14 0;
#X connect 26 10 15 0;
#X connect 26 11 16 0;
#X connect 26 12 27 0;
#X connect 26 13 28 0;
#X connect 26 14 29 0;
#X connect 26 15 30 0;
#X connect 26 16 34 0;
#X connect 26 17 35 0;
#X connect 26 18 36 0;
#X connect 26 19 37 0;
#X connect 28 0 31 0;
#X connect 29 0 32 0;
#X connect 30 0 33 0;
#X connect 31 0 66 0;
#X connect 32 0 66 1;
#X connect 33 0 66 2;
#X connect 35 0 38 0;
#X connect 36 0 39 0;
#X connect 37 0 40 0;
#X connect 38 0 67 0;
#X connect 39 0 67 1;
#X connect 40 0 67 2;
#X connect 48 0 52 0;
#X connect 49 0 53 0;
#X connect 50 0 54 0;
#X connect 51 0 55 0;
#X connect 56 0 58 0;
#X connect 57 0 62 0;
#X connect 58 0 3 0;
#X connect 58 1 4 0;
#X connect 58 2 59 0;
#X connect 58 3 60 0;
#X connect 60 0 61 0;
#X connect 61 0 63 0;
#X connect 65 0 49 0;
#X connect 66 0 50 0;
#X connect 67 0 51 0;
#X connect 68 0 69 0;
#X connect 70 0 48 0;
#X connect 71 0 68 0;
#X connect 72 0 73 0;
#X connect 73 0 79 0;
#X connect 73 1 74 0;
#X connect 73 2 80 0;
#X connect 73 3 75 0;
#X connect 73 4 81 0;
#X connect 73 5 76 0;
#X connect 73 6 82 0;
#X connect 73 7 77 0;
#X connect 73 8 83 0;
#X connect 73 9 78 0;
#X connect 74 0 85 0;
#X connect 75 0 86 0;
#X connect 76 0 87 0;
#X connect 77 0 88 0;
#X connect 78 0 89 0;
#X connect 84 0 26 0;
