#N canvas 52 60 450 504 10;
#X obj 36 40 inlet;
#X obj 110 40 inlet;
#X obj 184 40 inlet;
#X obj 290 19 loadbang;
#X obj 36 61 clip 0 0.8;
#X obj 110 61 clip 0 0.8;
#X obj 184 61 clip 0 0.6;
#X obj 36 82 * 1.25;
#X obj 110 82 * 1.25;
#X obj 184 82 * 2.5;
#X obj 36 459 outlet;
#X floatatom 36 103 5 0 0 0 - - -;
#X floatatom 110 103 5 0 0 0 - - -;
#X floatatom 184 103 5 0 0 0 - - -;
#X msg 290 55 1 1 1;
#X obj 290 114 vsl 15 128 0 1 0 0 empty empty empty 0 -9 0 10 -262144
-1 -1 12700 1;
#X obj 330 114 vsl 15 128 0 1 0 0 empty empty empty 0 -9 0 10 -262144
-1 -1 12700 1;
#X obj 370 114 vsl 15 128 0 1 0 0 empty empty empty 0 -9 0 10 -262144
-1 -1 12700 1;
#X floatatom 290 250 5 0 0 0 - - -;
#X floatatom 330 250 5 0 0 0 - - -;
#X floatatom 370 250 5 0 0 0 - - -;
#X obj 36 323 *;
#X obj 110 323 *;
#X obj 185 323 *;
#X floatatom 36 344 5 0 0 0 - - -;
#X floatatom 110 344 5 0 0 0 - - -;
#X floatatom 185 344 5 0 0 0 - - -;
#X obj 330 300 t b f;
#X obj 370 300 t b f;
#X obj 290 358 pack f f f;
#X obj 290 379 sum;
#X obj 36 364 pack f f f;
#X obj 36 385 sum;
#X obj 36 406 /;
#X obj 290 76 unpack f f f;
#X connect 0 0 4 0;
#X connect 1 0 5 0;
#X connect 2 0 6 0;
#X connect 3 0 14 0;
#X connect 4 0 7 0;
#X connect 5 0 8 0;
#X connect 6 0 9 0;
#X connect 7 0 11 0;
#X connect 8 0 12 0;
#X connect 9 0 13 0;
#X connect 11 0 21 0;
#X connect 12 0 22 0;
#X connect 13 0 23 0;
#X connect 14 0 34 0;
#X connect 15 0 18 0;
#X connect 16 0 19 0;
#X connect 17 0 20 0;
#X connect 18 0 21 1;
#X connect 18 0 29 0;
#X connect 19 0 27 0;
#X connect 20 0 28 0;
#X connect 21 0 24 0;
#X connect 22 0 25 0;
#X connect 23 0 26 0;
#X connect 24 0 31 0;
#X connect 25 0 31 1;
#X connect 26 0 31 2;
#X connect 27 0 15 0;
#X connect 27 1 22 1;
#X connect 27 1 29 1;
#X connect 28 0 15 0;
#X connect 28 1 23 1;
#X connect 28 1 29 2;
#X connect 29 0 30 0;
#X connect 30 0 33 1;
#X connect 31 0 32 0;
#X connect 32 0 33 0;
#X connect 33 0 10 0;
#X connect 34 0 15 0;
#X connect 34 1 16 0;
#X connect 34 2 17 0;
#X coords 0 -1 1 1 140 230 1 280 50;
